# 3ds Max Wavefront OBJ Exporter v0.97b - (c)2007 guruware
# File Created: 01.09.2016 15:31:00

#
# object Arch26_012_Obj_00
#

v  -13.1003 20.9904 -9.9592
v  -10.4828 20.9904 -9.9592
v  -10.4828 20.9904 -13.4781
v  -13.1003 20.9904 -13.4781
v  -13.1002 0.0894 11.3231
v  -10.4876 0.0894 11.3231
v  -10.4876 20.9904 11.3231
v  -13.1002 20.9904 11.3231
v  -13.1003 0.0894 -13.4781
v  -10.4876 0.0894 -13.4781
v  -13.1003 5.9557 -13.4781
v  -10.4828 5.9557 -13.4781
v  -13.1002 0.6983 10.7142
v  -10.4876 0.6983 10.7142
v  -10.4876 0.6983 -12.8692
v  -13.1003 0.6983 -12.8692
v  -13.1002 20.3815 10.7142
v  -10.4876 20.3815 10.7142
v  -13.1003 20.3815 -9.8915
v  -10.4828 20.3815 -9.8915
v  -13.1003 5.9557 -12.8692
v  -10.4828 5.9557 -12.8692
v  -10.4828 20.3815 -12.8692
v  -13.1003 20.3815 -12.8692
v  10.3678 20.9904 -9.9592
v  12.9804 20.9904 -9.9592
v  12.9804 20.9904 -13.4781
v  10.3678 20.9904 -13.4781
v  10.3678 0.0894 11.3231
v  12.9804 0.0894 11.3231
v  12.9804 20.9904 11.3231
v  10.3678 20.9904 11.3231
v  10.3678 0.0894 -13.4781
v  12.9804 0.0894 -13.4781
v  10.3678 5.9557 -13.4781
v  12.9804 5.9557 -13.4781
v  10.3678 0.6983 10.7142
v  12.9804 0.6983 10.7142
v  12.9804 0.6983 -12.8692
v  10.3678 0.6983 -12.8692
v  10.3678 20.3815 10.7142
v  12.9804 20.3815 10.7142
v  10.3678 20.3815 -9.8915
v  12.9804 20.3815 -9.8915
v  10.3678 5.9557 -12.8692
v  12.9804 5.9557 -12.8692
v  12.9804 20.3815 -12.8692
v  10.3678 20.3815 -12.8692
v  10.3402 10.0745 10.7142
v  10.3402 6.0038 10.7142
v  -10.4562 6.0038 10.7142
v  -10.4562 10.0745 10.7142
v  10.3402 10.0735 11.3231
v  -10.4562 10.0735 11.3231
v  10.3402 5.9884 11.3231
v  -10.4562 5.9884 11.3231
v  10.3402 10.0798 10.6942
v  10.3402 7.8944 -7.9252
v  -10.4523 7.8944 -7.9252
v  -10.4523 10.0798 10.6942
v  10.3402 9.4709 10.6931
v  -10.4523 9.4709 10.6932
v  10.3402 7.2855 -7.8509
v  -10.4523 7.2855 -7.8509
v  10.3402 7.9689 -7.3173
v  10.3402 20.9588 -9.2330
v  -10.4523 20.9588 -9.2330
v  -10.4523 7.9689 -7.3173
v  10.3402 7.8999 -7.9262
v  -10.4523 7.8999 -7.9262
v  10.3402 20.9503 -9.8418
v  -10.4523 20.9503 -9.8418
v  10.3402 5.9428 11.3239
v  10.3402 5.9428 -13.4732
v  -10.4523 5.9428 -13.4731
v  -10.4523 5.9428 11.3239
v  10.3402 5.3339 11.3228
v  -10.4523 5.3339 11.3229
v  10.3402 5.3339 -13.4738
v  -10.4523 5.3339 -13.4738
# 80 vertices

vn 0.0000 1.0000 -0.0000
vn 0.0000 0.0000 1.0000
vn -0.0000 -1.0000 0.0000
vn -0.0000 0.0000 -1.0000
vn -0.0000 -0.0000 -1.0000
vn 0.0000 -1.0000 0.0000
vn -1.0000 0.0000 0.0000
vn 1.0000 -0.0001 0.0001
vn 1.0000 0.0000 0.0002
vn 1.0000 -0.0000 -0.0000
vn 0.0000 -1.0000 -0.0000
vn -0.0000 1.0000 0.0000
vn 0.0000 0.1104 0.9939
vn 1.0000 -0.0005 0.0004
vn 1.0000 -0.0008 -0.0000
vn 1.0000 -0.0008 0.0001
vn 1.0000 -0.0005 0.0005
vn 0.0000 1.0000 0.0017
vn -0.0000 -0.9997 -0.0253
vn -0.0000 0.9932 -0.1166
vn 0.0000 -0.0017 1.0000
vn 0.0000 -0.9931 0.1170
vn -0.0000 -0.1211 -0.9926
vn 0.0000 0.1459 0.9893
vn -0.0000 -0.9937 0.1125
vn -0.0000 -0.1452 -0.9894
vn 0.0000 0.9999 -0.0140
vn -0.0000 0.9999 -0.0140
vn -0.0000 0.0011 -1.0000
# 29 vertex normals

vt 0.6167 0.7464 0.0000
vt 0.6168 0.7136 0.0000
vt 0.6615 0.7137 0.0000
vt 0.6616 0.7465 0.0000
vt 0.9409 0.7461 0.0000
vt 0.9410 0.7789 0.0000
vt 0.6789 0.7792 0.0000
vt 0.6789 0.7464 0.0000
vt 0.6292 0.4021 0.0000
vt 0.6293 0.3694 0.0000
vt 0.9403 0.3699 0.0000
vt 0.9402 0.4027 0.0000
vt 0.4238 0.8446 0.0000
vt 0.4238 0.8774 0.0000
vt 0.3502 0.8774 0.0000
vt 0.3502 0.8446 0.0000
vt 0.9326 0.4103 0.0000
vt 0.9325 0.4431 0.0000
vt 0.6368 0.4426 0.0000
vt 0.6369 0.4098 0.0000
vt 0.6865 0.7387 0.0000
vt 0.6864 0.7060 0.0000
vt 0.9333 0.7057 0.0000
vt 0.9333 0.7385 0.0000
vt 0.6159 0.7540 0.0000
vt 0.6158 0.7868 0.0000
vt 0.3578 0.7864 0.0000
vt 0.3578 0.7537 0.0000
vt 0.4238 0.8369 0.0000
vt 0.4238 0.8041 0.0000
vt 0.6049 0.8043 0.0000
vt 0.6050 0.8367 0.0000
vt 0.3579 0.7057 0.0000
vt 0.6159 0.7060 0.0000
vt 0.3502 0.7133 0.0000
vt 0.9123 0.3097 0.0000
vt 0.9123 0.2770 0.0000
vt 0.9570 0.2769 0.0000
vt 0.9570 0.3096 0.0000
vt 0.6123 0.9100 0.0000
vt 0.6123 0.9427 0.0000
vt 0.3502 0.9427 0.0000
vt 0.3502 0.9100 0.0000
vt 0.6292 0.5335 0.0000
vt 0.6292 0.5007 0.0000
vt 0.9402 0.5007 0.0000
vt 0.9402 0.5335 0.0000
vt 0.7035 0.8117 0.0000
vt 0.7035 0.8445 0.0000
vt 0.6300 0.8445 0.0000
vt 0.6300 0.8117 0.0000
vt 0.9326 0.4603 0.0000
vt 0.9326 0.4931 0.0000
vt 0.6369 0.4931 0.0000
vt 0.6369 0.4603 0.0000
vt 0.3578 0.9831 0.0000
vt 0.3578 0.9504 0.0000
vt 0.6046 0.9504 0.0000
vt 0.6046 0.9831 0.0000
vt 0.9114 0.2366 0.0000
vt 0.9114 0.2694 0.0000
vt 0.6533 0.2697 0.0000
vt 0.6533 0.2369 0.0000
vt 0.7035 0.8848 0.0000
vt 0.7035 0.8521 0.0000
vt 0.8843 0.8518 0.0000
vt 0.8842 0.8847 0.0000
vt 0.9326 0.5411 0.0000
vt 0.6369 0.5411 0.0000
vt 0.6126 0.8444 0.0000
vt 0.6127 0.8772 0.0000
vt 0.3578 0.8369 0.0000
vt 0.3578 0.8042 0.0000
vt 0.8919 0.8114 0.0000
vt 0.8919 0.8441 0.0000
vt 0.6376 0.8848 0.0000
vt 0.6376 0.8521 0.0000
vt 0.3502 0.7461 0.0000
vt 0.6540 0.7541 0.0000
vt 0.6541 0.7867 0.0000
vt 0.6457 0.3100 0.0000
vt 0.6457 0.2773 0.0000
vt 0.9495 0.2364 0.0000
vt 0.9493 0.2693 0.0000
vt 0.3505 0.6024 0.0000
vt 0.3504 0.5583 0.0000
vt 0.6119 0.5579 0.0000
vt 0.6119 0.6020 0.0000
vt 0.3502 0.3697 0.0000
vt 0.6116 0.3694 0.0000
vt 0.3502 0.3621 0.0000
vt 0.6116 0.3618 0.0000
vt 0.9084 0.0020 0.0000
vt 0.9084 0.1838 0.0000
vt 0.6457 0.1838 0.0000
vt 0.6457 0.0020 0.0000
vt 0.9084 0.2192 0.0000
vt 0.6457 0.2192 0.0000
vt 0.3505 0.6101 0.0000
vt 0.6120 0.6097 0.0000
vt 0.4238 0.8850 0.0000
vt 0.3578 0.8850 0.0000
vt 0.9333 0.7865 0.0000
vt 0.6865 0.7868 0.0000
vt 0.6369 0.3618 0.0000
vt 0.9327 0.3623 0.0000
vt 0.9115 0.3174 0.0000
vt 0.6534 0.3176 0.0000
vt 0.3578 0.9023 0.0000
vt 0.6046 0.9023 0.0000
vt 0.6376 0.8041 0.0000
vt 0.7035 0.8041 0.0000
vt 0.6194 0.6310 0.0000
vt 0.6194 0.6842 0.0000
vt 0.3502 0.6842 0.0000
vt 0.3502 0.6310 0.0000
vt 0.6267 0.6313 0.0000
vt 0.6266 0.6273 0.0000
vt 0.8959 0.6273 0.0000
vt 0.8959 0.6313 0.0000
vt 0.6267 0.6842 0.0000
vt 0.8959 0.6842 0.0000
vt 0.6267 0.6884 0.0000
vt 0.8959 0.6884 0.0000
vt 0.9010 0.6313 0.0000
vt 0.9010 0.6842 0.0000
vt 0.0096 0.7755 0.1191
vt 0.0102 0.5597 -0.1433
vt 0.2911 0.5597 -0.1191
vt 0.2906 0.7755 0.1433
vt 0.0096 0.7852 -0.0010
vt 0.2906 0.7852 0.0011
vt 0.0098 0.9980 -0.1433
vt 0.2906 0.9980 -0.1191
vt 0.0102 0.5503 -0.0043
vt 0.2911 0.5503 -0.0021
vt 0.3022 0.7755 -0.0003
vt 0.3022 0.5597 -0.0002
vt 0.0020 0.7755 -0.0003
vt 0.0020 0.5597 -0.0002
vt 0.3564 0.3445 0.4153
vt 0.3564 0.1778 0.7380
vt 0.6195 0.1778 0.7380
vt 0.6195 0.3445 0.4153
vt 0.3564 0.0097 -0.7380
vt 0.3564 0.0022 -0.5598
vt 0.6195 0.0020 -0.5598
vt 0.6195 0.0097 -0.7380
vt 0.3564 0.1739 -0.3828
vt 0.6195 0.1739 -0.3828
vt 0.6284 0.0096 -0.5604
vt 0.6284 0.1738 -0.5604
vt 0.3502 0.1736 -0.5604
vt 0.3502 0.0097 -0.5604
vt 0.0099 0.5331 0.0052
vt 0.3234 0.5331 -0.0049
vt 0.3234 0.2730 -0.0419
vt 0.0099 0.2719 0.0422
vt 0.0099 0.0130 0.0052
vt 0.0020 0.0128 -0.0434
vt 0.0020 0.2645 0.0433
vt 0.0099 0.2643 0.0422
vt 0.3234 0.0130 -0.0049
vt 0.3234 0.2654 -0.0419
vt 0.3329 0.0128 -0.0433
vt 0.3329 0.2656 0.0434
vt 0.3234 0.0021 -0.0419
vt 0.0099 0.0020 0.0422
# 168 texture coords

g Arch26_012_Obj_00
s 1
f 1/1/1 2/2/1 3/3/1 4/4/1 
s 4
f 5/5/2 6/6/2 7/7/2 8/8/2 
s 2
f 9/9/3 10/10/3 6/11/3 5/12/3 
s 4
f 11/13/4 12/14/4 10/15/4 9/16/4 
s 1
f 13/17/1 14/18/1 15/19/1 16/20/1 
s 4
f 17/21/5 18/22/5 14/23/5 13/24/5 
s 2
f 19/25/6 20/26/6 18/27/3 17/28/3 
s 4
f 21/29/2 22/30/2 23/31/2 24/32/2 
s 16
f 5/5/7 8/8/7 17/21/7 13/24/7 
f 18/33/8 20/34/9 2/2/9 7/35/8 
s 1
f 25/36/1 26/37/1 27/38/1 28/39/1 
s 4
f 29/40/2 30/41/2 31/42/2 32/43/2 
s 2
f 33/44/3 34/45/3 30/46/3 29/47/3 
s 4
f 35/48/4 36/49/4 34/50/4 33/51/4 
s 1
f 37/52/1 38/53/1 39/54/1 40/55/1 
s 4
f 41/56/5 42/57/5 38/58/5 37/59/5 
s 2
f 43/60/3 44/61/3 42/62/3 41/63/3 
s 4
f 45/64/2 46/65/2 47/66/2 48/67/2 
s 16
f 33/44/7 29/47/7 37/68/7 40/69/7 
f 39/54/10 38/53/10 30/46/10 34/45/10 
s 4
f 4/70/4 3/71/4 12/14/4 11/13/4 
f 16/72/2 15/73/2 22/30/2 21/29/2 
f 28/74/4 27/75/4 36/49/4 35/48/4 
f 40/76/2 39/77/2 46/65/2 45/64/2 
s 1
f 8/78/1 7/35/1 2/2/1 1/1/1 
s 2
f 24/79/11 23/80/11 20/26/6 19/25/6 
s 1
f 32/81/1 31/82/1 26/37/1 25/36/1 
s 2
f 48/83/3 47/84/3 44/61/3 43/60/3 
s 16
f 4/70/7 11/13/7 21/29/7 24/32/7 
f 47/66/10 46/65/10 36/49/10 27/75/10 
s off
f 25/85/12 28/86/12 3/87/12 2/88/12 
f 28/86/4 35/89/4 12/90/4 3/87/4 
f 35/89/3 45/91/3 22/92/3 12/90/3 
f 45/93/2 48/94/2 23/95/2 22/96/2 
f 48/94/3 43/97/3 20/98/3 23/95/3 
f 43/99/13 25/85/13 2/88/13 20/100/13 
s 16
f 8/78/7 1/1/7 19/25/7 17/28/7 
f 10/15/14 12/14/15 22/101/16 15/102/17 
f 13/17/7 16/20/7 9/9/7 5/12/7 
f 7/7/8 6/6/10 14/103/10 18/104/8 
f 6/11/10 10/10/14 15/105/17 14/106/10 
f 16/72/7 21/29/7 11/13/7 9/16/7 
f 42/62/10 44/61/10 26/37/10 31/82/10 
f 32/81/7 25/36/7 43/107/7 41/108/7 
f 29/40/7 32/43/7 41/109/7 37/110/7 
f 38/58/10 42/57/10 31/42/10 30/41/10 
f 46/65/10 39/77/10 34/50/10 36/49/10 
f 35/48/7 33/51/7 40/111/7 45/112/7 
f 44/61/10 47/84/10 27/38/10 26/37/10 
f 1/1/7 4/4/7 24/79/7 19/25/7 
s 1
f 49/113/5 50/114/5 51/115/5 52/116/5 
s 4
f 53/117/18 49/118/18 52/119/18 54/120/18 
s 2
f 55/121/2 53/117/2 54/120/2 56/122/2 
s 4
f 50/123/19 55/121/19 56/122/19 51/124/19 
s 16
f 54/120/7 52/125/7 51/126/7 56/122/7 
f 50/114/10 49/113/10 53/117/10 55/121/10 
s 1
f 57/127/20 58/128/20 59/129/20 60/130/20 
s 4
f 61/131/21 57/127/21 60/130/21 62/132/21 
s 2
f 63/133/22 61/131/22 62/132/22 64/134/22 
s 4
f 58/128/23 63/135/23 64/136/23 59/129/23 
s 16
f 62/137/7 60/130/7 59/129/7 64/138/7 
f 58/128/10 57/127/10 61/139/10 63/140/10 
s 1
f 65/141/24 66/142/24 67/143/24 68/144/24 
s 4
f 69/145/25 65/146/25 68/147/25 70/148/25 
s 2
f 71/149/26 69/145/26 70/148/26 72/150/26 
s 4
f 66/142/27 71/149/27 72/150/28 67/143/28 
s 16
f 70/148/7 68/151/7 67/152/7 72/150/7 
f 66/153/10 65/154/10 69/145/10 71/149/10 
s 1
f 73/155/1 74/156/1 75/157/1 76/158/1 
s 4
f 77/159/21 73/160/21 76/161/21 78/162/21 
s 2
f 79/163/3 77/159/3 78/162/3 80/164/3 
s 4
f 74/165/29 79/163/29 80/164/29 75/166/29 
s 16
f 78/162/7 76/158/7 75/157/7 80/164/7 
f 74/167/10 73/168/10 77/159/10 79/163/10 
# 74 polygons

