<svg width="1231" height="80" viewBox="0 0 1231 80" fill="none" xmlns="http://www.w3.org/2000/svg">
<g filter="url(#filter0_f_1293_135)">
<path d="M32 20C32 17.2386 34.2386 15 37 15H1216C1218.76 15 1221 17.2386 1221 20V65C1221 67.7614 1218.76 70 1216 70H37C34.2386 70 32 67.7614 32 65V20Z" fill="url(#paint0_linear_1293_135)"/>
</g>
<path d="M30.4569 0H1230L1200 30H0L30.4569 0Z" fill="url(#paint1_linear_1293_135)" fill-opacity="0.8"/>
<path d="M0 30H1200V35H0V30Z" fill="url(#paint2_linear_1293_135)"/>
<path d="M1230 0L1200 30V35L1230 4.5V0Z" fill="url(#paint3_linear_1293_135)"/>
<defs>
<filter id="filter0_f_1293_135" x="22" y="5" width="1209" height="75" filterUnits="userSpaceOnUse" color-interpolation-filters="sRGB">
<feFlood flood-opacity="0" result="BackgroundImageFix"/>
<feBlend mode="normal" in="SourceGraphic" in2="BackgroundImageFix" result="shape"/>
<feGaussianBlur stdDeviation="5" result="effect1_foregroundBlur_1293_135"/>
</filter>
<linearGradient id="paint0_linear_1293_135" x1="611.5" y1="15" x2="611.5" y2="70" gradientUnits="userSpaceOnUse">
<stop stop-color="#00FFC8" stop-opacity="0.1"/>
<stop offset="1" stop-color="#00FFB9" stop-opacity="0"/>
</linearGradient>
<linearGradient id="paint1_linear_1293_135" x1="500" y1="0" x2="500" y2="30" gradientUnits="userSpaceOnUse">
<stop stop-color="#00FFC8" stop-opacity="0.05"/>
<stop offset="1" stop-color="#00FFC8" stop-opacity="0.2"/>
</linearGradient>
<linearGradient id="paint2_linear_1293_135" x1="585" y1="30" x2="585" y2="35" gradientUnits="userSpaceOnUse">
<stop stop-color="#00FFC8" stop-opacity="0.03"/>
<stop offset="1" stop-color="#00FFC8" stop-opacity="0.25"/>
</linearGradient>
<linearGradient id="paint3_linear_1293_135" x1="1207.5" y1="9.5" x2="1224" y2="29" gradientUnits="userSpaceOnUse">
<stop offset="0.295" stop-color="#00FFC8" stop-opacity="0"/>
<stop offset="1" stop-color="#01FFC8" stop-opacity="0.16"/>
</linearGradient>
</defs>
</svg>
